<svg xmlns="http://www.w3.org/2000/svg" fill="none" viewBox="0 0 240 174"><path fill="#9DA7B2" d="M58.41 65.37 48.64 65a1.33 1.33 0 1 0 0 2.66l9.77-.33" opacity=".3"/><path fill="#9DA7B2" fill-rule="evenodd" d="M58.88 61.2a2.52 2.52 0 1 1 4.62 1.4l.92.04v5.47l-6.06-.32v-5.47l.81.05a2.48 2.48 0 0 1-.29-1.16Zm2.52-1.92A1.92 1.92 0 0 0 60 62.5l.49.54-1.52-.08v4.26l4.86.25v-4.26l-1.7-.09.55-.48a1.91 1.91 0 0 0-1.27-3.36Z" clip-rule="evenodd" opacity=".4"/><path fill="#9DA7B2" d="M227.28 129.17h-83.04l-.26-6.55h83.04l.26 6.55Z" opacity=".25"/><g fill="#9DA7B2" opacity=".3"><path d="M153.76 82.53a.95.95 0 1 1-1.9 0 .95.95 0 0 1 1.9 0ZM164.14 82.53a.95.95 0 1 1-1.9 0 .95.95 0 0 1 1.9 0ZM173.57 83.47a.95.95 0 1 1-1.9 0 .95.95 0 0 1 1.9 0ZM184.9 82.53a.95.95 0 1 1-1.9 0 .95.95 0 0 1 1.9 0ZM195.28 83.05a.95.95 0 1 1-1.9 0 .95.95 0 0 1 1.9 0ZM205.66 82.53a.95.95 0 1 1-1.9 0 .95.95 0 0 1 1.9 0ZM216.04 82.83a.95.95 0 1 1-1.9 0 .95.95 0 0 1 1.9 0ZM154.7 92.92a.95.95 0 1 1-1.9 0 .95.95 0 0 1 1.9 0ZM164.14 92.92a.95.95 0 1 1-1.9 0 .95.95 0 0 1 1.9 0ZM174.52 92.92a.95.95 0 1 1-1.9 0 .95.95 0 0 1 1.9 0ZM184.9 92.92a.95.95 0 1 1-1.9 0 .95.95 0 0 1 1.9 0ZM194.33 93.67a.95.95 0 1 1-1.9 0 .95.95 0 0 1 1.9 0ZM205.66 92.92a.95.95 0 1 1-1.9 0 .95.95 0 0 1 1.9 0ZM216.04 92.92a.95.95 0 1 1-1.9 0 .95.95 0 0 1 1.9 0ZM153.76 103.31a.95.95 0 1 1-1.9 0 .95.95 0 0 1 1.9 0ZM164.14 103.31a.95.95 0 1 1-1.9 0 .95.95 0 0 1 1.9 0ZM174.52 103.31a.95.95 0 1 1-1.9 0 .95.95 0 0 1 1.9 0ZM185.84 103.74a.95.95 0 1 1-1.89 0 .95.95 0 0 1 1.9 0ZM195.28 103.31a.95.95 0 1 1-1.9 0 .95.95 0 0 1 1.9 0ZM205.97 102.8a.95.95 0 1 1-1.9 0 .95.95 0 0 1 1.9 0ZM215.6 103.31a.95.95 0 1 1-1.9 0 .95.95 0 0 1 1.9 0ZM154.7 114.65a.95.95 0 1 1-1.9 0 .95.95 0 0 1 1.9 0ZM163.19 114.66a.95.95 0 1 0 0-1.9.95.95 0 0 0 0 1.9ZM174.52 113.7a.95.95 0 1 1-1.9 0 .95.95 0 0 1 1.9 0ZM183.95 114.66a.95.95 0 1 0 0-1.9.95.95 0 0 0 0 1.9ZM195.28 114.65a.95.95 0 1 1-1.9 0 .95.95 0 0 1 1.9 0ZM204.71 114.66a.95.95 0 1 0 0-1.9.95.95 0 0 0 0 1.9ZM216.04 113.7a.95.95 0 1 1-1.9 0 .95.95 0 0 1 1.9 0Z"/></g><g fill="#9DA7B2" opacity=".4"><path d="M164.14 136.5h5.32v-.6h-5.32v.6ZM202.05 136.5h5.32v-.6h-5.32v.6ZM180.64 154.9v-5.33h-.6v5.33h.6ZM193.29 147.07l.31 6.67-.6.03-.31-6.68.6-.02Z"/></g><g fill="#9DA7B2" opacity=".16"><path d="M38.85 73.89h33.38v-5.76l-33.18-.6-.2 6.36Z"/><path fill-rule="evenodd" d="m20.26 173 19.92-99.06h6.78l-1.15 5.71h11.53l1.15-5.71h6.77L45.34 173h-6.77l1.75-8.71-11.53-.04-1.76 8.75h-6.77Zm7.68-9.34.4-2.66 12.31.04-.38 2.66-12.33-.04Zm3.15-10.8-1.52 7.55 11.52.03 1.43-7.1-11.43-.48Zm13.8-11.3-1.6 7.94-11.43-.5 1.56-7.77 11.47.33Zm-14.65 10.66.44-2.66 12.27.52-.41 2.67-12.3-.53Zm2.35-11.62.45-2.66 12.2.36-.42 2.66-12.23-.36Zm3.26-11.45-1.65 8.22 11.46.34 1.67-8.29-11.48-.27Zm13.74-10.97-1.45 7.23-11.5-.13 1.4-7.03 11.55-.07Zm-14.62 10.35.4-2.66 12.35.13-.57 2.82-12.18-.29Zm1.96-10.87.4-2.66 12.54-.08-.38 2.66-12.56.08Zm3.44-11-1.55 7.73 11.55-.07 1.41-7.02-11.4-.63ZM54.2 95.33l-1.64 8.14-11.4-.64 1.53-7.62 11.51.12Zm-15 10.68.45-2.67 12.45.7-.42 2.67-12.48-.7ZM41.7 94.6l.43-2.66 12.35.13-.4 2.66-12.38-.13Zm3.33-11.08-1.57 7.83 11.5.12 1.6-7.95H45.03Zm11.92-3.26-.38 2.66h-12.9l.4-2.66h12.88Z" clip-rule="evenodd"/><path d="m187.8 140.61 34.63.45-.13-9.45-34.68-.25.18 9.25ZM148.96 141.02l35.46-.47v-9.2h-34.68l-.78 9.67ZM150.82 162.3l15.47.23v8.1l17.32.43.43-27.4-33.22.7v3.12h2.74l5.87 14.94-8.6-.13v.01ZM189.04 170.24l32.18.11.55-26.69-32.73-.3v26.88Z"/></g><path fill="#9DA7B2" d="m159.43 162.42-85.09-1.27 6.64-13.66h72.58l5.87 14.93Z" opacity=".4"/><path fill="#9DA7B2" d="m166.29 162.53-99.3-1.49v11.93h99.3v-10.44Z" opacity=".3"/><g fill="#9DA7B2" opacity=".4"><path d="M222.73 74.52v48.1h-.6V75.13l-76.04 1.28 1.37 46.2-.6.02-1.4-46.8 77.27-1.3ZM146.07 129.2v18.28h-.6V129.2h.6ZM146.07 162.22h-.6.6Z"/><path d="M226.04 172.66V129.2h-.6v43.47H0v.6h238.47v-.6h-12.43Z"/></g><g fill="#9DA7B2" opacity=".08"><path d="m56.57 82.91.38-2.66H44.07l-.4 2.66h12.9ZM51.67 106.7l.42-2.67-12.45-.7-.45 2.67 12.48.7ZM49.5 117.58l.37-2.66-12.53.08-.4 2.66 12.55-.08ZM44.82 140.96l.42-2.66-12.2-.36-.45 2.66 12.23.36ZM42.54 152.75l.4-2.67-12.26-.52-.44 2.66 12.3.53ZM40.27 163.7l.38-2.66-12.3-.04-.4 2.66 12.32.04ZM54.08 94.72l.4-2.66-12.35-.13-.43 2.66 12.38.13ZM47.15 128.82l.57-2.82-12.34-.13-.41 2.66 12.18.29Z"/></g><g fill="#9DA7B2" opacity=".25"><path d="m45.03 83.51-.85 4.25.72 3.6 6.54.07-1.63-7.92h-4.78ZM45.8 79.65h3.22l-1.18-5.76h-.87l-1.16 5.76ZM52.23 95.3l-6.54-.07 1.6 7.93 5.26.3.67-3.33-.99-4.83ZM51.78 107.3l-3.7-.2 1.47 7.23.82-.01 1.41-7.02ZM53.55 132.2h-.1l-.44 2.17h.6l7.8 38.6H67v-5.77l-6.75-32.83 13.4-.02 3.41 21.2 3.92-8.07h1.46L70.6 73.88h-5.33l-.75 3.74 8.78 54.56-13.5.01-3.16-15.4-3.1 15.4ZM78.8 161.22l5.87.09-5.87-.09Z"/></g><path fill="#E9EBED" d="m94.64 42.07-6.08 32.4-5.78-1.17 4.43-33.98 7.43 2.75ZM94.95 100.7a7.45 7.45 0 1 1-14.06 4.94 7.45 7.45 0 0 1 14.06-4.94ZM96.06 97.1a3.28 3.28 0 0 1-.05 6.58l.05-6.57ZM208.7 103.6a3.29 3.29 0 1 1 6.56-.26l-6.56.25ZM212.34 104.58a7.44 7.44 0 1 1 5.57 13.8 7.44 7.44 0 0 1-5.57-13.8ZM153.85 107.6l32.64 4.59-.9 5.83-34.15-2.87 2.4-7.55ZM125.88 81.26l1.2 37.48 7.4.56 1.22-40.02-9.82 1.98ZM110.8 81.26l-1.22 37.48-7.4.56-1.2-40.02 9.81 1.98Z"/><path fill="#9DA7B2" fill-rule="evenodd" d="M147.03 46.98c.23-.63.37-1.28.48-1.95.48 1.85.5 3.82.4 5.85l-.08 1.68c-.1 1.72-.2 3.47-.08 5.18l.6-.04c-.12-1.67-.03-3.37.07-5.08l.1-1.71c.1-2.27.07-4.55-.63-6.7l-.29.1c.08-.7.12-1.42.16-2.1l-.6-.04c-.09 1.6-.18 3.2-.7 4.6-.15.43-.17.95-.15 1.45l.08 1.05.05.49c.03.49.04.9-.02 1.18a.8.8 0 0 1-.07.2c-.26-.47-.55-.9-.82-1.33l-.02-.03.11-.62.5-2.94-.6-.1c-.14.96-.31 1.93-.48 2.9-.73-1.23-1.28-2.63-.96-3.97l-.58-.14c-.43 1.78.47 3.58 1.34 4.93l.04.07-.18 1.05a4.5 4.5 0 0 1-1.54-1.65 15.45 15.45 0 0 1-1.4-4.33l-.59.13c.44 1.99 1.24 5.58 3.42 6.56-.23 1.4-.41 2.8-.5 4.2l.6.05c.08-1.36.26-2.71.47-4.06.29.06.6.08.92.05.35.71.6 1.45.6 2.27l.6-.01c0-.9-.27-1.7-.63-2.46a.98.98 0 0 0 .1-.1c.13-.15.21-.34.25-.54.1-.38.07-.88.03-1.36l-.04-.52-.08-.99c-.02-.5 0-.91.12-1.22Zm-1.77 4.24c.17.05.34.08.5.1l-.4-.67-.1.57Z" clip-rule="evenodd"/><path fill="#316BF4" d="m122.14 75.7-7.28.93.34-47.62h6.62l.32 46.69Z"/><path fill="#D1D5DA" d="M130.79 86.59a6.48 6.48 0 1 1 0-12.96 6.48 6.48 0 0 1 0 12.96ZM105.88 86.09a5.98 5.98 0 1 0 0-11.96 5.98 5.98 0 0 0 0 11.96ZM98.93 113.99l-.55 2.2c-1.82 7.27-5.02 19.94-3.35 31.3h15.47c2.87 0 5.15-2.4 5.03-5.26-.24-5.82-.93-15.14-2.86-20.96-1.9-5.72-6.47-8.28-9.54-9.38-1.6-.58-3.8.44-4.2 2.1ZM138.29 116.2c-.2-.8-.4-1.55-.55-2.21-.4-1.66-2.6-2.68-4.2-2.1-3.07 1.1-7.63 3.66-9.53 9.38-1.94 5.82-2.63 15.14-2.87 20.96a5.04 5.04 0 0 0 5.03 5.26h15.47c1.67-11.36-1.52-24.03-3.35-31.3ZM223.36 173.08h4.53l1.77-3.06-1.77-3.05h-4.53l-1.76 3.05 1.76 3.06ZM42.77 166.97h-4.54l-1.76 3.06 1.76 3.05h4.54l1.76-3.05-1.76-3.06Z"/><path fill="#E9EBED" d="m103.91 33.5 28.85.08v-12c0-7.97-6.46-14.44-14.42-14.44-7.97 0-14.43 6.47-14.43 11.96v14.4ZM90.88 35.3l15.2 30.7 25.5-.54 14.21-30.18-54.91.02ZM106.98 129.6a.97.97 0 1 0 0-1.94.97.97 0 0 0 0 1.94ZM110.64 147.49a4.9 4.9 0 1 0 0-9.79 4.9 4.9 0 0 0 0 9.79ZM126.03 147.49a4.9 4.9 0 1 1 0-9.79 4.9 4.9 0 0 1 0 9.79ZM129.7 129.6a.97.97 0 1 1 0-1.94.97.97 0 0 1 0 1.94ZM103.25 67.51l-.2 14.4 31.4-.04.32-14.36h-31.52ZM87.03 147.48v-1.3c0-.97.52-1.87 1.36-2.36l7.03-4.1 4.35 7.76H87.04ZM149.73 146.19v1.3H137l4.35-7.77 7.03 4.1a2.74 2.74 0 0 1 1.35 2.37ZM41.27 171.43h5.71v-2.84h-5.71a1.41 1.41 0 0 0 0 2.84ZM219.14 168.67h5.71a1.41 1.41 0 1 1 0 2.84h-5.71v-2.84Z"/><path fill="#FE4E5C" d="M105.1 38.87a1.08 1.08 0 1 1-2.15-.2 1.08 1.08 0 0 1 2.15.2"/><path fill="#FBB13D" d="M108.33 38.87a1.08 1.08 0 1 1-2.15-.2 1.08 1.08 0 0 1 2.15.2"/><path fill="#778089" fill-rule="evenodd" d="m118 8.22-.4-6.4-.59.03.39 6.4.6-.03Z" clip-rule="evenodd"/><path fill="#778089" d="M110.29 22.66v-.9h-.6v.9a1.63 1.63 0 1 0 3.25 0v-.9h-.6v.9a1.03 1.03 0 1 1-2.05 0ZM124.65 22.66v-.9h-.6v.9a1.62 1.62 0 1 0 3.25 0v-.9h-.6v.9a1.03 1.03 0 1 1-2.05 0Z"/><path fill="#14D8D4" d="M119.13 1.83a1.83 1.83 0 1 1-3.65 0 1.83 1.83 0 0 1 3.65 0ZM111.57 70.22l-8.35.43-.1 7.88h8.66l-.21-8.3ZM134.52 78.14l-8.3-.03-.3-7.48 8.77-.42-.17 7.93ZM121.4 49.35h-17a.74.74 0 0 1-.75-.74V44.1c0-.4.34-.74.74-.74h17.01c.41 0 .74.33.74.74v4.52c0 .41-.33.74-.74.74ZM113.57 7.93a14.4 14.4 0 0 1 8.62-.26l-.69 9.08h-6.97l-.96-8.82Z"/><path fill="#3AC364" d="M110.39 39.84a1.08 1.08 0 1 0 .2-2.15 1.08 1.08 0 0 0-.2 2.15Z"/><path fill="#fff" d="M134.7 39.88h-18.95a1.11 1.11 0 0 1 0-2.23h18.95a1.11 1.11 0 0 1 0 2.23ZM105.17 54.28h13.23v-.6h-13.23v.6ZM116.71 56.18l-9.54.16.01.6 9.54-.16v-.6ZM107.19 60.4l7.06-.17-.02-.6-7.06.16.02.6ZM114.21 48.16l-2.1-3.9-.53.27 2.1 3.92.53-.29ZM110 45.14l.3.53-1.28.7 1.27.7-.29.52-2.22-1.22 2.22-1.23ZM115.68 45.14l2.22 1.23-2.22 1.22-.3-.52 1.28-.7-1.27-.7.29-.53Z"/><path fill="#316BF4" d="M127.32 54.97a2.32 2.32 0 0 0-3.44.17 2.4 2.4 0 0 0 .22 3.2l2.56 2.55c.37.37.96.37 1.32 0l2.56-2.56c.86-.86 1-2.25.22-3.2a2.32 2.32 0 0 0-3.44-.16Z"/><path fill="#D1D5DA" d="M119 29.34h5.38a.6.6 0 0 0 0-1.2H119a.6.6 0 0 0 0 1.2ZM139.82 38.5a5.48 5.48 0 1 0 10.96 0 5.48 5.48 0 0 0-10.96 0ZM98 38.98a5.48 5.48 0 1 1-10.96-.5 5.48 5.48 0 0 1 10.95.5ZM79.59 106.36c-4.83-14.57.12-38.18.12-38.18l2.66.59a15.2 15.2 0 0 1 10.59 8.66c3.84 8.63 4.85 25.74 4.85 25.74-9.16 6.04-18.22 3.19-18.22 3.19ZM128.51 46.58a.97.97 0 1 1-1.93 0 .97.97 0 0 1 1.93 0ZM111.23 54.98v-1.83l.87-.04-.16 1.82-.71.05ZM115.05 57.4v-1.78l-.81.08.09 1.82.72-.13ZM108.84 60.96v-1.78l.73-.12.09 1.81-.82.09ZM132.24 46.58a.97.97 0 1 1-1.94 0 .97.97 0 0 1 1.94 0ZM134.85 47.55a.97.97 0 1 0 0-1.94.97.97 0 0 0 0 1.94ZM180.59 121.33s23.78 3.86 38.1-1.63c0 0 2.42-9.2-4.02-18.08 0 0-17.03 1.8-25.46 6.03a15.21 15.21 0 0 0-8.16 10.99l-.46 2.69ZM48.4 170.02a1.42 1.42 0 1 1-2.84 0 1.42 1.42 0 0 1 2.84 0ZM217.73 170.02a1.41 1.41 0 1 1 2.83 0 1.41 1.41 0 0 1-2.83 0Z"/><path fill="#9DA7B2" d="m93.38 48.44-5.92-1.37-.13.58 5.92 1.37.13-.58ZM92.35 53.56l-5.67-2.23-.22.56 5.67 2.23.22-.56ZM85.53 57.1l5.93 1.85-.18.57-5.93-1.85.18-.57ZM90.42 63.6l-5.93-1.85-.18.57 5.93 1.85.18-.57ZM89.26 68.89l-5.51-2.63-.26.54 5.52 2.63.25-.54ZM109.84 90.2l-8.29.35.03.6 8.29-.35-.03-.6ZM101.73 95.57l7.55.4-.03.6-7.55-.4.03-.6ZM109.8 101.08l-7.6.16.01.6 7.6-.17-.01-.6ZM102.12 106.03l7.54.43-.04.6-7.54-.44.04-.6ZM109.48 112.56l-4.52.22-.03-.6 4.52-.22.03.6ZM126.8 90.8l8.3.35.02-.6-8.3-.35-.02.6ZM134.97 96.17l-7.54.4-.04-.6 7.55-.4.03.6ZM126.86 101.67l7.6.17.01-.6-7.6-.16-.01.6ZM134.59 106.62l-7.54.44-.04-.6 7.55-.44.03.6ZM131.74 112.18l-4.52-.23-.03.6 4.52.23.03-.6ZM104.7 123.34l-7.4-1.54-.12.59 6.87 1.43-2.17 23.17.6.05 2.21-23.7ZM132.62 123.82l6.87-1.43-.12-.59-7.4 1.55 2.23 23.7.6-.06-2.18-23.17ZM200.9 115.18l1.23 7.41-.59.1-1.14-6.87-9.07.58-.44 5.39-.6-.05.49-5.9 10.13-.66ZM158.99 115.57l1.28-7.01.6.1-1.3 7.02-.58-.11ZM165.44 109.36l-2.24 6.56.56.2 2.24-6.57-.56-.2ZM169.27 116l1.58-6 .58.15-1.58 6-.58-.14ZM175.53 110.83l-1.57 6 .58.16 1.57-6-.58-.16ZM178.5 117.37l2.37-5.63.55.23-2.37 5.63-.56-.23ZM78.78 78.46l5.35.69.17 9.1-6.92.82.08.6 7.44-.9-.18-10.15-5.87-.75-.07.6Z"/></svg>