<?xml version="1.0" encoding="UTF-8" standalone="no"?>
<svg
   xmlns:dc="http://purl.org/dc/elements/1.1/"
   xmlns:cc="http://creativecommons.org/ns#"
   xmlns:rdf="http://www.w3.org/1999/02/22-rdf-syntax-ns#"
   xmlns:svg="http://www.w3.org/2000/svg"
   xmlns="http://www.w3.org/2000/svg"
   viewBox="0 0 258.66666 258.66666"
   height="258.66666"
   width="258.66666"
   xml:space="preserve"
   id="svg2"
   version="1.1"><metadata
     id="metadata8"><rdf:RDF><cc:Work
         rdf:about=""><dc:format>image/svg+xml</dc:format><dc:type
           rdf:resource="http://purl.org/dc/dcmitype/StillImage" /></cc:Work></rdf:RDF></metadata><defs
     id="defs6" /><g
     transform="matrix(1.3333333,0,0,-1.3333333,0,258.66667)"
     id="g10"><g
       transform="scale(0.1)"
       id="g12"><path
         id="path14"
         style="fill:#ffffff;fill-opacity:1;fill-rule:evenodd;stroke:none"
         d="M 2.59766,1933.23 H 1930.16 V 5.66797 H 2.59766 V 1933.23" /><path
         id="path16"
         style="fill:#231f20;fill-opacity:1;fill-rule:evenodd;stroke:none"
         d="m 1517.86,824.512 c 80.5,0 145.77,65.363 145.77,145.992 0,80.626 -65.27,145.986 -145.77,145.986 -80.5,0 -145.77,-65.36 -145.77,-145.986 0,-80.629 65.27,-145.992 145.77,-145.992" /><path
         id="path18"
         style="fill:#231f20;fill-opacity:1;fill-rule:evenodd;stroke:none"
         d="m 1519.62,1353.21 c -167.11,0 -309.15,-107.41 -361.08,-257.03 1.98,14.68 2.89,30.7 2.89,48.29 0,55.4 -31.77,115.56 -77.22,148.19 -42.49,30.69 -85.421,49.4 -136.812,49.4 H 616.383 V 588.207 h 310.258 c 61.277,0 113.789,22.527 166.149,60.137 48.44,34.636 79.36,96.265 79.36,154.636 0,2.731 -0.02,5.43 -0.07,8.114 60.38,-131.77 193.28,-223.297 347.54,-223.297 211.07,0 382.19,171.348 382.19,382.707 0,211.356 -171.12,382.706 -382.19,382.706 z M 809.703,1178.66 h 80.918 c 39.461,0 80.918,-6.91 80.918,-57.3 2.887,-45.49 -24.309,-72.46 -78.832,-72.46 l -83.004,-0.3 z M 959.836,773.25 c -16.828,-13.879 -39.574,-12.891 -60.363,-12.891 h -90.067 v 138.403 h 82.145 c 49.738,0 92.308,-12.91 94.457,-71.012 0,-18.84 -11.32,-43.59 -26.172,-54.5 z m 182.154,145.305 c -14.83,19.621 -36.37,38.16 -67.57,56.133 35.26,18.226 57.87,40.552 71.35,70.362 -4.75,-24.16 -7.27,-49.12 -7.27,-74.671 0,-17.578 1.21,-34.871 3.49,-51.824 z m 375.87,-147.168 c -109.78,0 -198.77,89.148 -198.77,199.117 0,109.966 88.99,199.116 198.77,199.116 109.78,0 198.78,-89.15 198.78,-199.116 0,-109.969 -89,-199.117 -198.78,-199.117" /><path
         id="path20"
         style="fill:#231f20;fill-opacity:1;fill-rule:evenodd;stroke:none"
         d="M 379.801,1065.4 H 223.605 v 278.03 H 30.9453 V 586.922 H 222.656 V 882.199 H 378.859 V 586.922 H 574.031 V 1343.43 H 379.801 V 1065.4" /><path
         id="path22"
         style="fill:#231f20;fill-opacity:1;fill-rule:evenodd;stroke:none"
         d="m 1824.24,630.316 c -12.97,0 -23.13,-9.086 -23.13,-22.339 0,-13.258 10.21,-22.289 23.13,-22.289 12.91,0 23.13,9.085 23.13,22.289 0,13.253 -10.16,22.339 -23.13,22.339 z m 0,-38.269 c -9.25,0 -16.12,6.773 -16.12,15.93 0,9.156 6.81,15.984 16.12,15.984 9.2,0 16.12,-6.938 16.12,-15.984 0,-8.993 -6.98,-15.93 -16.12,-15.93" /><path
         id="path24"
         style="fill:#231f20;fill-opacity:1;fill-rule:evenodd;stroke:none"
         d="m 1828.18,606.406 c 3.24,0.164 5.78,1.84 5.78,6.324 0,5.786 -3.78,7.243 -10.1,7.243 h -9.07 V 595.98 h 6.05 v 10.211 h 1.02 l 5.51,-10.211 h 6.96 z m -3.89,3.86 h -3.45 v 5.574 h 2.91 c 1.79,0 3.84,-0.219 3.84,-2.543 0,-2.488 -1.19,-3.031 -3.3,-3.031" /></g></g></svg>