<?xml version="1.0" encoding="UTF-8" standalone="no"?>
<!-- Created with Inkscape (http://www.inkscape.org/) -->

<svg
   version="1.1"
   id="svg2"
   xml:space="preserve"
   width="315.49747"
   height="97.186134"
   viewBox="0 0 315.49747 97.186134"
   sodipodi:docname="651206da9dac5e7c7f97fc3d51e75861.ai"
   xmlns:inkscape="http://www.inkscape.org/namespaces/inkscape"
   xmlns:sodipodi="http://sodipodi.sourceforge.net/DTD/sodipodi-0.dtd"
   xmlns="http://www.w3.org/2000/svg"
   xmlns:svg="http://www.w3.org/2000/svg"><defs
     id="defs6"><clipPath
       clipPathUnits="userSpaceOnUse"
       id="clipPath16"><path
         d="M 0,340 H 720 V 0 H 0 Z"
         id="path14" /></clipPath></defs><sodipodi:namedview
     id="namedview4"
     pagecolor="#ffffff"
     bordercolor="#666666"
     borderopacity="1.0"
     inkscape:pageshadow="2"
     inkscape:pageopacity="0.0"
     inkscape:pagecheckerboard="0" /><g
     id="g8"
     inkscape:groupmode="layer"
     inkscape:label="651206da9dac5e7c7f97fc3d51e75861"
     transform="matrix(1.3333333,0,0,-1.3333333,-322.66626,281.36133)"><g
       id="g10"><g
         id="g12"
         clip-path="url(#clipPath16)"><g
           id="g18"
           transform="translate(282.6147,176.5874)"><path
             d="m 0,0 c 1.177,2.993 3.973,5.051 7.357,5.051 3.434,0 6.034,-2.059 7.113,-5.051 z m 7.357,11.919 c -8.387,0 -15.205,-6.817 -15.205,-15.205 0,-8.387 6.818,-15.205 15.205,-15.205 5.003,0 9.711,2.402 12.411,6.131 l -5.789,4.022 c -0.687,-1.129 -2.894,-3.285 -6.622,-3.285 -3.433,0 -6.23,2.06 -7.406,5.051 h 21.926 c 0.247,1.078 0.345,2.158 0.345,3.286 C 22.268,5.1 15.746,11.919 7.357,11.919 M 167.459,-2.257 h -3.236 l 12.507,13.293 h -9.27 L 157.354,0.146 v 26.487 h -7.209 v -44.244 h 7.209 v 8.141 l 3.974,4.22 8.485,-12.361 h 8.732 z M 40.025,-11.625 c -4.608,0 -8.093,3.678 -8.093,8.338 0,4.661 3.581,8.338 8.093,8.338 4.612,0 7.996,-3.677 7.996,-8.338 0,-4.66 -3.384,-8.338 -7.996,-8.338 m 7.996,19.914 c -2.453,2.551 -5.69,3.629 -9.075,3.629 -7.064,0 -14.224,-6.426 -14.224,-15.205 0,-8.779 7.16,-15.205 14.224,-15.205 3.385,0 6.622,1.078 9.075,3.629 v -2.747 h 7.211 V 10.988 H 48.021 Z M 73.233,5.051 c 3.14,0 5.691,-1.716 7.015,-4.267 L 85.889,5.1 c -2.747,4.071 -7.359,6.769 -12.656,6.769 -8.387,0 -15.205,-6.818 -15.205,-15.205 0,-8.388 6.818,-15.205 15.205,-15.205 5.248,0 9.909,2.697 12.656,6.769 l -5.641,4.317 c -1.324,-2.552 -3.875,-4.269 -7.015,-4.269 -4.61,0 -7.996,3.678 -7.996,8.339 0,4.66 3.435,8.436 7.996,8.436 m 61.511,0 c 3.137,0 5.688,-1.716 7.013,-4.267 l 5.641,4.316 c -2.747,4.071 -7.357,6.769 -12.654,6.769 -8.389,0 -15.207,-6.818 -15.207,-15.205 0,-8.388 6.818,-15.205 15.207,-15.205 5.248,0 9.906,2.697 12.654,6.769 l -5.641,4.317 c -1.325,-2.552 -3.876,-4.269 -7.013,-4.269 -4.612,0 -7.996,3.678 -7.996,8.339 0,4.66 3.482,8.436 7.996,8.436 M 101.83,-11.625 c -4.61,0 -7.995,3.678 -7.995,8.338 0,4.661 3.483,8.338 7.995,8.338 4.61,0 7.995,-3.677 7.995,-8.338 0,-4.66 -3.385,-8.338 -7.995,-8.338 m 0,23.544 c -8.387,0 -15.205,-6.817 -15.205,-15.205 0,-8.387 6.818,-15.205 15.205,-15.205 8.387,0 15.205,6.818 15.205,15.205 0,8.388 -6.818,15.205 -15.205,15.205 m -124.54,-23.104 -10.693,-4.169 v 12.067 c 0,4.856 3.63,8.338 7.995,8.338 4.365,0 7.995,-3.53 7.995,-8.338 0,-3.041 -1.471,-6.377 -5.297,-7.898 m -2.7,23.104 c -8.387,0 -15.205,-6.817 -15.205,-15.205 v -35.17 h 7.21 v 19.521 l 2.649,-2.794 10.595,4.167 c 6.034,2.355 9.958,7.801 9.958,14.275 0,8.387 -6.818,15.206 -15.207,15.206"
             style="fill:#000000;fill-opacity:1;fill-rule:nonzero;stroke:none"
             id="path20" /></g><g
           id="g22"
           transform="translate(474.2578,163.2934)"><path
             d="m 0,0 c -2.404,0 -4.367,-1.962 -4.367,-4.367 0,-2.403 1.962,-4.363 4.367,-4.363 2.402,0 4.365,1.959 4.365,4.363 C 4.365,-1.962 2.404,0 0,0"
             style="fill:#069de0;fill-opacity:1;fill-rule:nonzero;stroke:none"
             id="path24" /></g><g
           id="g26"
           transform="translate(474.2578,175.2128)"><path
             d="m 0,0 c -2.404,0 -4.367,-1.961 -4.367,-4.367 0,-2.402 1.962,-4.364 4.367,-4.364 2.402,0 4.365,1.961 4.365,4.364 C 4.316,-1.913 2.404,0 0,0"
             style="fill:#6e55dc;fill-opacity:1;fill-rule:nonzero;stroke:none"
             id="path28" /></g><g
           id="g30"
           transform="translate(474.2578,151.3735)"><path
             d="m 0,0 c -2.404,0 -4.367,-1.961 -4.367,-4.366 0,-2.403 1.962,-4.364 4.367,-4.364 2.402,0 4.365,1.96 4.365,4.364 C 4.365,-1.961 2.404,0 0,0"
             style="fill:#05ac3f;fill-opacity:1;fill-rule:nonzero;stroke:none"
             id="path32" /></g><g
           id="g34"
           transform="translate(474.2578,187.1821)"><path
             d="m 0,0 c -2.404,0 -4.367,-1.961 -4.367,-4.366 0,-2.403 1.962,-4.365 4.367,-4.365 2.402,0 4.365,1.961 4.365,4.365 C 4.316,-1.962 2.404,0 0,0"
             style="fill:#ef1541;fill-opacity:1;fill-rule:nonzero;stroke:none"
             id="path36" /></g><g
           id="g38"
           transform="translate(474.2578,199.1015)"><path
             d="m 0,0 c -2.404,0 -4.367,-1.961 -4.367,-4.366 0,-2.403 1.962,-4.365 4.367,-4.365 2.402,0 4.365,1.961 4.365,4.365 C 4.316,-1.962 2.404,0 0,0"
             style="fill:#ff7112;fill-opacity:1;fill-rule:nonzero;stroke:none"
             id="path40" /></g><g
           id="g42"
           transform="translate(474.2578,211.021)"><path
             d="m 0,0 c -2.404,0 -4.367,-1.961 -4.367,-4.366 0,-2.403 1.962,-4.365 4.367,-4.365 2.402,0 4.365,1.961 4.365,4.365 C 4.316,-1.962 2.404,0 0,0"
             style="fill:#fccc12;fill-opacity:1;fill-rule:nonzero;stroke:none"
             id="path44" /></g></g></g></g></svg>
