<svg width="168" height="140" viewBox="0 0 168 140" fill="none" xmlns="http://www.w3.org/2000/svg">
<path d="M104.986 1.81278C83.112 -1.01678 65.1844 9.75965 45.8814 27.901C30.2174 42.6107 4.77829 43.5807 3.27599 67.0333C1.45319 95.5832 48.7659 97.8776 62.7006 111.678C99.7442 148.469 147.705 143.592 160.097 109.818C171.134 79.7563 153.166 65.7556 146.83 46.4102C137.662 18.5226 128.068 4.7962 104.986 1.81278Z" fill="#DBEEFE"/>
<path d="M74.3051 86.4924L52.6585 113.651C51.4977 115.096 49.8135 116.022 47.9734 116.228C46.1333 116.434 44.2867 115.901 42.8367 114.748C41.3928 113.585 40.4666 111.897 40.2603 110.052C40.0539 108.207 40.584 106.356 41.735 104.901L63.3816 77.7495" fill="white"/>
<path d="M93.3944 97.3157C113.023 97.3157 128.936 81.3739 128.936 61.7087C128.936 42.0434 113.023 26.1016 93.3944 26.1016C73.7655 26.1016 57.8531 42.0434 57.8531 61.7087C57.8531 81.3739 73.7655 97.3157 93.3944 97.3157Z" fill="white"/>
<path d="M77.5301 93.0279L55.8902 120.18C54.7292 121.627 53.0436 122.555 51.2019 122.76C49.3602 122.966 47.5121 122.432 46.0617 121.277C44.6173 120.114 43.6913 118.425 43.4861 116.58C43.2809 114.735 43.8132 112.883 44.9667 111.43L68.1089 82.3116" fill="white"/>
<path d="M62.0863 31.1253C56.8285 37.6986 53.955 45.8662 53.9367 54.2898C53.9185 62.7133 56.7565 70.8933 61.9858 77.4895C67.2151 84.0857 74.5255 88.7069 82.7194 90.596C90.9132 92.4851 99.5045 91.53 107.086 87.8873C114.667 84.2445 120.788 78.1301 124.447 70.5459C128.106 62.9616 129.085 54.3573 127.224 46.1427C125.363 37.928 120.772 30.5902 114.203 25.3315C107.635 20.0728 99.4788 17.2051 91.0708 17.1982C85.5029 17.1727 80.0017 18.4127 74.9812 20.8251C69.9608 23.2374 65.5519 26.7591 62.0863 31.1253ZM91.0708 20.2351C98.7741 20.2481 106.245 22.881 112.259 27.7028C118.274 32.5245 122.477 39.2493 124.179 46.7762C125.881 54.303 124.982 62.1857 121.628 69.1337C118.275 76.0817 112.666 81.6832 105.721 85.021C98.7753 88.3588 90.9043 89.2351 83.3968 87.5065C75.8892 85.7779 69.1899 81.5467 64.3958 75.5058C59.6018 69.4649 56.997 61.9723 57.008 54.2548C57.0191 46.5372 59.6453 39.0521 64.4566 33.025C67.6507 29.0292 71.7014 25.8048 76.3085 23.5908C80.9157 21.3768 85.9611 20.2299 91.0708 20.2351Z" fill="#B4DCF8"/>
<path d="M47.1768 117.424C45.647 117.417 44.15 116.979 42.8572 116.159C41.5644 115.34 40.528 114.172 39.8668 112.79C39.2056 111.408 38.9462 109.867 39.1184 108.344C39.2906 106.821 39.8874 105.378 40.8404 104.179L62.4803 77.0271L64.2831 78.4653L42.6365 105.624C41.7079 106.84 41.2919 108.372 41.4776 109.892C41.6634 111.411 42.4362 112.798 43.6302 113.753C44.8243 114.709 46.3445 115.158 47.865 115.004C49.3855 114.849 50.7852 114.104 51.7638 112.928L73.4037 85.7767L75.2065 87.2149L53.5599 114.387C52.8929 115.225 52.0668 115.922 51.1294 116.439C50.192 116.956 49.1618 117.281 48.0982 117.397C47.7918 117.423 47.4842 117.431 47.1768 117.424Z" fill="#B4DCF8"/>
<path d="M87.7955 52.832L77.4724 61.0526L79.2631 63.3096L89.5861 55.0889L87.7955 52.832Z" fill="#78BCE4"/>
<path d="M79.2635 52.8296L77.4733 55.0869L87.7977 63.3057L89.588 61.0485L79.2635 52.8296Z" fill="#78BCE4"/>
<path d="M87.9193 79.6025C87.5597 79.6017 87.2093 79.4886 86.9168 79.2789C86.6244 79.0692 86.4044 78.7734 86.2876 78.4327C86.1708 78.0919 86.1629 77.7231 86.2651 77.3777C86.3673 77.0323 86.5744 76.7273 86.8577 76.5053C89.5993 74.4225 92.9337 73.2723 96.3741 73.223C99.8145 73.1737 103.18 74.2277 105.98 76.2311C106.303 76.5137 106.509 76.9068 106.558 77.3335C106.607 77.7602 106.496 78.19 106.245 78.5386C105.995 78.8873 105.624 79.1299 105.204 79.219C104.785 79.3082 104.347 79.2374 103.977 79.0205C101.834 77.489 99.2652 76.6701 96.6327 76.6793C93.881 76.6629 91.2015 77.5616 89.0143 79.2346C88.7025 79.4798 88.3157 79.6097 87.9193 79.6025Z" fill="#78BCE4"/>
<path d="M113.468 52.8352L103.145 61.0559L104.936 63.3128L115.259 55.0922L113.468 52.8352Z" fill="#78BCE4"/>
<path d="M104.936 52.8271L103.146 55.0844L113.47 63.3032L115.261 61.0459L104.936 52.8271Z" fill="#78BCE4"/>
<path d="M73.5773 47.9354C73.2611 47.9344 72.9513 47.8465 72.6814 47.6814C72.4116 47.5162 72.1921 47.2801 72.0469 46.9988C71.9016 46.7174 71.8362 46.4015 71.8576 46.0854C71.8791 45.7694 71.9866 45.4653 72.1685 45.2062C72.5223 44.7045 72.8829 44.2162 73.2702 43.7345C78.2167 37.5095 85.4145 33.4905 93.3009 32.5501C93.5258 32.5224 93.754 32.5394 93.9723 32.6C94.1907 32.6607 94.395 32.7639 94.5735 32.9036C94.7521 33.0434 94.9015 33.217 95.013 33.4146C95.1246 33.6122 95.1963 33.8298 95.2239 34.0551C95.2515 34.2805 95.2346 34.509 95.174 34.7278C95.1135 34.9466 95.0105 35.1512 94.871 35.3301C94.7315 35.509 94.5582 35.6586 94.361 35.7704C94.1638 35.8822 93.9465 35.954 93.7216 35.9817C86.7381 36.8231 80.3666 40.3872 75.9877 45.9019C75.6471 46.3233 75.32 46.7581 75.0128 47.1996C74.8516 47.4303 74.6365 47.6179 74.3863 47.7462C74.1361 47.8744 73.8583 47.9394 73.5773 47.9354Z" fill="white"/>
</svg>
